<svg xmlns="http://www.w3.org/2000/svg" xmlns:xlink="http://www.w3.org/1999/xlink" width="808.69" height="417.986" viewBox="0 0 808.69 417.986"><defs><style>.a{fill:url(#a);}.b{fill:#fff;}.c{fill:#eee;}.d{fill:url(#b);}.e{fill:url(#c);}.f{fill:url(#d);}.g{fill:url(#e);}.h{fill:#f5f5f5;}.i{fill:#a1887f;}.j{fill:#d7ccc8;}.k{fill:#8d6e63;}.l{fill:#616161;}.m{fill:#424242;}.n,.o{opacity:0.2;}.n{fill:url(#f);}.o{fill:url(#g);}.p{fill:#b57d6b;}.q{fill:#191472;}.r{fill:#ffc958;}.s{fill:#464646;}.t{fill:#7c7c7c;}.u{fill:#363190;}</style><radialGradient id="a" cx="0.5" cy="0.5" r="0.415" gradientTransform="matrix(0.948, 0, 0, -1.003, -1.088, 4.072)" gradientUnits="objectBoundingBox"><stop offset="0" stop-color="#f5f5f5"/><stop offset="1" stop-color="#eee" stop-opacity="0"/></radialGradient><linearGradient id="b" x1="0.5" y1="-0.485" x2="0.5" y2="0.515" gradientUnits="objectBoundingBox"><stop offset="0" stop-color="#fff" stop-opacity="0"/><stop offset="1" stop-color="#f5f5f5"/></linearGradient><linearGradient id="c" x1="0.5" y1="-0.985" x2="0.5" y2="0.015" gradientUnits="objectBoundingBox"><stop offset="0" stop-color="#fff" stop-opacity="0"/><stop offset="0.68" stop-color="#f5f5f5" stop-opacity="0.678"/><stop offset="1" stop-color="#eee"/></linearGradient><linearGradient id="d" x1="0.5" y1="-1.486" x2="0.5" y2="-0.486" gradientUnits="objectBoundingBox"><stop offset="0" stop-color="#fff" stop-opacity="0"/><stop offset="0.43" stop-color="#f5f5f5" stop-opacity="0.431"/><stop offset="1" stop-color="#e0e0e0"/></linearGradient><radialGradient id="e" cx="0.487" cy="-0.5" r="1.367" gradientTransform="matrix(0.3, -0.003, -0.001, -1.276, 0.342, 1.364)" gradientUnits="objectBoundingBox"><stop offset="0.089" stop-color="#fff" stop-opacity="0"/><stop offset="0.871" stop-color="#fff" stop-opacity="0.859"/><stop offset="1" stop-color="#fff"/></radialGradient><linearGradient id="f" x1="0.5" y1="-5.444" x2="0.5" y2="-4.444" gradientUnits="objectBoundingBox"><stop offset="0" stop-color="#fff" stop-opacity="0"/><stop offset="0.142" stop-color="#e6e2e0" stop-opacity="0.153"/><stop offset="0.938" stop-color="#5d4037"/><stop offset="0.943" stop-color="#553a32"/><stop offset="0.955" stop-color="#482f29"/><stop offset="0.97" stop-color="#402924"/><stop offset="1" stop-color="#3e2723"/></linearGradient><linearGradient id="g" x1="0.5" y1="-5.74" x2="0.5" y2="-4.74" gradientUnits="objectBoundingBox"><stop offset="0" stop-color="#fff" stop-opacity="0"/><stop offset="0.228" stop-color="#d2cdcc" stop-opacity="0.227"/><stop offset="1" stop-color="#3e2723"/></linearGradient></defs><g transform="translate(-0.5 -89.415)"><g transform="translate(409.939 89.415)"><ellipse class="a" cx="156.194" cy="147.997" rx="156.194" ry="147.997"/><circle class="b" cx="41.907" cy="41.907" r="41.907" transform="translate(114.459 106.578)"/></g><g transform="translate(473.72 209.44)"><g transform="translate(132.542 9.788)"><rect class="c" width="3.895" height="58.475" transform="translate(32.162)"/><path class="c" d="M630.6,217.551v45.8H598.434Z" transform="translate(-598.434 -217.551)"/></g><rect class="c" width="4.873" height="70.169" transform="translate(38.009 0.044)"/><path class="c" d="M505.614,207.889v53.644H467.605Z" transform="translate(-467.605 -207.889)"/></g><path class="b" d="M706.7,272.644V420.708H90.5V272.918c17.385,0,31.73-6.139,33.939-14.082,2.209,7.943,16.554,14.082,33.939,14.082,16.372,0,30.048-5.44,33.432-12.714,3.384,7.274,17.06,12.714,33.432,12.714,17.385,0,31.73-6.139,33.939-14.082,2.209,7.943,16.554,14.082,33.939,14.082s31.73-6.139,33.939-14.082c2.209,7.943,16.554,14.082,33.939,14.082s31.73-6.139,33.939-14.082c2.209,7.943,16.554,14.082,33.939,14.082s31.73-6.139,33.939-14.082c2.209,7.943,16.554,14.082,33.939,14.082s31.73-6.139,33.939-14.082c2.209,7.943,16.554,14.082,33.939,14.082s31.73-6.139,33.939-14.082c2.208,7.943,16.554,14.082,33.939,14.082s31.73-6.139,33.939-14.082c2.208,7.943,16.554,14.082,33.939,14.082C702.539,272.918,704.656,272.827,706.7,272.644Z" transform="translate(1.178 2.218)"/><path class="d" d="M706.7,272.644V420.708H90.5V272.918c17.385,0,31.73-6.139,33.939-14.082,2.209,7.943,16.554,14.082,33.939,14.082,16.372,0,30.048-5.44,33.432-12.714,3.384,7.274,17.06,12.714,33.432,12.714,17.385,0,31.73-6.139,33.939-14.082,2.209,7.943,16.554,14.082,33.939,14.082s31.73-6.139,33.939-14.082c2.209,7.943,16.554,14.082,33.939,14.082s31.73-6.139,33.939-14.082c2.209,7.943,16.554,14.082,33.939,14.082s31.73-6.139,33.939-14.082c2.209,7.943,16.554,14.082,33.939,14.082s31.73-6.139,33.939-14.082c2.209,7.943,16.554,14.082,33.939,14.082s31.73-6.139,33.939-14.082c2.208,7.943,16.554,14.082,33.939,14.082s31.73-6.139,33.939-14.082c2.208,7.943,16.554,14.082,33.939,14.082C702.539,272.918,704.656,272.827,706.7,272.644Z" transform="translate(1.178 2.218)"/><path class="e" d="M706.7,312.644V460.708H90.5V312.918c17.385,0,31.73-6.139,33.939-14.082,2.209,7.943,16.554,14.082,33.939,14.082,16.372,0,30.048-5.44,33.432-12.714,3.384,7.274,17.06,12.714,33.432,12.714,17.385,0,31.73-6.139,33.939-14.082,2.209,7.943,16.554,14.082,33.939,14.082s31.73-6.139,33.939-14.082c2.209,7.943,16.554,14.082,33.939,14.082s31.73-6.139,33.939-14.082c2.209,7.943,16.554,14.082,33.939,14.082s31.73-6.139,33.939-14.082c2.209,7.943,16.554,14.082,33.939,14.082s31.73-6.139,33.939-14.082c2.209,7.943,16.554,14.082,33.939,14.082s31.73-6.139,33.939-14.082c2.208,7.943,16.554,14.082,33.939,14.082s31.73-6.139,33.939-14.082c2.208,7.943,16.554,14.082,33.939,14.082C702.539,312.918,704.656,312.827,706.7,312.644Z" transform="translate(1.178 2.742)"/><path class="f" d="M706.7,352.644V500.708H90.5V352.918c17.385,0,31.73-6.139,33.939-14.082,2.209,7.943,16.554,14.082,33.939,14.082,16.372,0,30.048-5.44,33.432-12.714,3.384,7.274,17.06,12.714,33.432,12.714,17.385,0,31.73-6.139,33.939-14.082,2.209,7.943,16.554,14.082,33.939,14.082s31.73-6.139,33.939-14.082c2.209,7.943,16.554,14.082,33.939,14.082s31.73-6.139,33.939-14.082c2.209,7.943,16.554,14.082,33.939,14.082s31.73-6.139,33.939-14.082c2.209,7.943,16.554,14.082,33.939,14.082s31.73-6.139,33.939-14.082c2.209,7.943,16.554,14.082,33.939,14.082s31.73-6.139,33.939-14.082c2.208,7.943,16.554,14.082,33.939,14.082s31.73-6.139,33.939-14.082c2.208,7.943,16.554,14.082,33.939,14.082C702.539,352.918,704.656,352.827,706.7,352.644Z" transform="translate(1.178 3.265)"/><path class="g" d="M701.559,272.918c-17.385,0-31.73-6.139-33.939-14.082-2.209,7.943-16.554,14.082-33.939,14.082s-31.73-6.139-33.939-14.082c-2.209,7.943-16.554,14.082-33.939,14.082s-31.73-6.139-33.939-14.082c-2.208,7.943-16.554,14.082-33.939,14.082s-31.73-6.139-33.939-14.082c-2.209,7.943-16.554,14.082-33.939,14.082s-31.73-6.139-33.939-14.082c-2.209,7.943-16.554,14.082-33.939,14.082s-31.73-6.139-33.939-14.082c-2.209,7.943-16.554,14.082-33.939,14.082s-31.73-6.139-33.939-14.082c-2.209,7.943-16.554,14.082-33.939,14.082-16.372,0-30.048-5.44-33.432-12.714-3.384,7.274-17.06,12.714-33.432,12.714-17.385,0-31.73-6.139-33.939-14.082C123.408,266.779,17.885,272.918.5,272.918V501.755H809.19V272.644C807.143,272.827,703.717,272.918,701.559,272.918Z" transform="translate(0 2.218)"/><g transform="translate(175.258 101.151)"><path class="h" d="M173.259,175.969s-6.061-48.346,40.411-43.2c0,0,7.072-38.06,52.534-30.86,0,0-38.39,6.172-40.411,33.946,0,0-6.061,12.344-18.185,19.545l2.02-12.344S183.362,143.052,173.259,175.969Z" transform="translate(-173 -100.999)"/><path class="h" d="M653,105.116s25.773-3.092,24.776,22.675c0,0,19.931,1.03,14.948,29.89,0,0-5.412-22.54-18.934-23.705,0,0-5.025-2.284-8.969-9.276l5.979,1.03S671.03,110.943,653,105.116Z" transform="translate(-166.716 -100.947)"/></g><g transform="translate(138.787 366.581)"><path class="i" d="M351.775,375,340.631,477.322l-15.2,12.157h0l-15.2,4.052h0l-19.249,7.092-23.3,2.026-32.419,1.013H137V455.034l104.875-12.5h.01L270.2,423.051l26.715-.608L315.3,404.38l19.249,4.052Z" transform="translate(-137 -362.843)"/><path class="j" d="M166.38,382.249l26.34-3.039,19.249-6.079L286.937,363l26.34,10.131,38.5,2.026-17.223,33.432L315.3,404.537l-18.236,18.236-27.353,1.013-27.353,19.249L137,455.191Z" transform="translate(-137 -363)"/><path class="i" d="M349.34,375,338.2,477.322,323,489.479l9.118-81.047Z" transform="translate(-134.565 -362.843)"/><path class="k" d="M332.314,408.052,323.2,489.1,308,493.152,313.065,404Z" transform="translate(-134.761 -362.463)"/><path class="k" d="M235.27,502.785H137V454.157L242.361,442Z" transform="translate(-137 -361.966)"/><path class="i" d="M313.314,404l-5.065,89.152L289,500.244l6.079-78.008Z" transform="translate(-135.01 -362.463)"/><path class="k" d="M295.38,422,289.3,500.008,266,502.034l2.026-79.021Z" transform="translate(-135.311 -362.228)"/><path class="i" d="M268.445,423l-2.026,79.021L234,503.034l7.092-60.785Z" transform="translate(-135.73 -362.215)"/></g><g transform="translate(166.832 165.99)"><g transform="translate(112.911 9.811)"><path class="l" d="M326.769,174.686s-.006.005-.01.005v0l-9.19.636.818,11.815,9.19-.636v0s.007,0,.01,0c.719-.05,1.119-2.735.894-6S327.488,174.636,326.769,174.686Z" transform="translate(-275.592 -174.685)"/><ellipse class="m" cx="1.316" cy="5.922" rx="1.316" ry="5.922" transform="matrix(0.998, -0.069, 0.069, 0.998, 40.662, 0.717)"/><path class="l" d="M318.906,181.161c-.161-2.327-.533-4.213-.865-4.5-.055-.057-.089-.056-.089-.056l-22.637,1.567.636,9.19,22.637-1.567s.033-.005.08-.068C318.958,185.41,319.067,183.489,318.906,181.161Z" transform="translate(-275.883 -174.66)"/><ellipse class="m" cx="0.944" cy="4.606" rx="0.944" ry="4.606" transform="matrix(0.998, -0.069, 0.069, 0.998, 18.487, 3.573)"/><path class="l" d="M295.492,179.464l-19.358,1.34.455,6.564,19.358-1.34c.328-.022.492-1.511.367-3.323S295.82,179.442,295.492,179.464Z" transform="translate(-276.134 -174.623)"/></g><path class="n" d="M293.814,401.7s-59.893,38.215-84.1,41.027c-3.5.407-15.955.351-16.716-3.095-.734-3.327,8.856-6.951,12.157-7.8,20.768-5.319,63.318-33.685,63.318-33.685Z" transform="translate(-164.312 -161.949)"/><path class="o" d="M250.275,392.364S158.588,433.509,165,428.184c13.928-11.561,61.191-38.05,61.191-38.05Z" transform="translate(-164.682 -162.054)"/><path class="p" d="M275.62,196.651c-.776,1.783-2.745,3.608-7.321,6.315,0,0-1.831.9-.915,5.413H250.914a12.028,12.028,0,0,0,4.281-5.408,6.561,6.561,0,0,0-.91-6.579c-1.865-2.444-4.286-6.534-4.286-15.979,0-10.825,7.957-14.4,14.53-14.412,9.42-.015,13.837,6.293,13.837,18.021A28.387,28.387,0,0,1,275.62,196.651Z" transform="translate(-163.566 -164.988)"/><path d="M253.546,196.848C251.878,194.278,250,190.9,250,181.368c0-10.926,6.205-16.342,15.849-16.368,8.085-.021,11.487,5.68,12.374,11.144a3.452,3.452,0,0,0-2.928.95c-1.773,1.822-.406,4.152-.545,6.2a3.264,3.264,0,0,1-1.734,2.916c-1.457-5.794-4.71-5.453-5.888-4.243-1.773,1.822-.7,6.953,1.107,8.33,0,3.642-.576,6.655-3.236,8.477A8.149,8.149,0,0,1,253.546,196.848Z" transform="translate(-163.566 -165.001)"/><path class="p" d="M303.136,206.443c-9.653-12.683-12.048-24.234-12.467-26.662a.665.665,0,0,0-.529-.537h0c-6.014-.864-9.468.837-9.468.837-1,.565-1.075,2.2-.966,3.333.326,3.413-.7,3.69-.7,3.69,0,1.512,1.426,2.107,2.652,3.014l2.557,1.225s3.6,3.552,10.815,18.649C296.1,212.242,304.647,208.429,303.136,206.443Z" transform="translate(-163.186 -164.818)"/><path class="q" d="M234.348,213.782l-.283,50.875-3.106-4.828A18.683,18.683,0,0,1,229,251.487V229.2a24.607,24.607,0,0,1,2.361-10.538A24.929,24.929,0,0,1,234.348,213.782Z" transform="translate(-163.84 -164.362)"/><path class="r" d="M267,391v6.967s0,4.177,4.052,4.177h21.275s1.06-5.42-5.978-6.629C276.118,394.039,276.118,391,276.118,391Z" transform="translate(-163.343 -162.042)"/><path class="r" d="M249.231,392.273l-21.4,2.676a2.675,2.675,0,0,1-2.676-2.676l.892-5.351,8.918-1.784h0c1.072,2.144,5.15,3.392,7.531,3.127l.171-.015a6.445,6.445,0,0,1,6.568,4.023Z" transform="translate(-163.891 -162.119)"/><path class="p" d="M226.031,387.016l8.918-1.784L236.131,378h-9.118Z" transform="translate(-163.879 -162.213)"/><path class="s" d="M235.235,278.165s-3.763,32.446-2.637,54.262c-4.177,14.162-7.6,47.893-7.6,47.893h12.157s14.3-47.079,19.165-66.524c1.784-7.135,1.748-33.349,1.748-33.349Z" transform="translate(-163.893 -163.52)"/><path class="p" d="M266,380.705l1.013,10.443h9.118V379.692Z" transform="translate(-163.356 -162.19)"/><path class="t" d="M280.508,282.09l-1.617,99.7-11.764.84-3.566.254s-3.38-21.92-5.762-45.136c-6.222-17.982-8.967-40.75-12.074-62.812Z" transform="translate(-163.622 -163.562)"/><path class="r" d="M280.379,237.6v44.978l-24.754-2.336Z" transform="translate(-163.492 -164.051)"/><path class="u" d="M281.7,231.928l22.648-2.727a8.92,8.92,0,0,0,6.525-13.462L303.629,204l-9.447,4.726,1.771,3.2a.893.893,0,0,1-1.231,1.217l-7.057-4.277a35.663,35.663,0,0,0-12.549-3.3l-18.76-1.393c-8.6-.662-16.64,2.505-21.929,9.7-.13.176-1.783,29.251-1.783,47.677,0,7.446-1.681,10.585-5.695,13.575-2.793,2.08-3.948,2.836-3.948,2.836s1.329,3.475,7.6,8.927c3.925,3.414,13.957,4.181,22.161,4.181s15.83,4.114,15.83,4.114,9.929-26.081,11.518-39.1A223.437,223.437,0,0,0,281.7,231.928Z" transform="translate(-163.919 -164.49)"/><path class="q" d="M226.947,274.211c-2.792,2.08-3.947,2.826-3.947,2.826s1.329,3.483,7.6,8.932c3.925,3.412,13.957,4.179,22.161,4.179s15.83,4.111,15.83,4.111.949-2.034,2.164-5.5C259.471,278.919,237.521,289.895,226.947,274.211Z" transform="translate(-163.919 -163.571)"/><path class="q" d="M293.262,208.771l9.447-4.723,2.805,4.941-10.481,2.976Z" transform="translate(-162.999 -164.49)"/></g></g></svg>